<svg id="Layer_1" data-name="Layer 1" xmlns="http://www.w3.org/2000/svg" xmlns:xlink="http://www.w3.org/1999/xlink" viewBox="0 0 9.7 9.97"><defs><style>.cls-1,.cls-6,.cls-8{fill:#ff7373;}.cls-1,.cls-3,.cls-4{clip-rule:evenodd;}.cls-2{fill:#ffd166;}.cls-11,.cls-13,.cls-3{fill:#06d6a0;}.cls-4,.cls-5{fill:none;}.cls-11,.cls-6{fill-rule:evenodd;}.cls-7{clip-path:url(#clip-path);}.cls-9{clip-path:url(#clip-path-2);}.cls-10{clip-path:url(#clip-path-3);}.cls-12{clip-path:url(#clip-path-4);}.cls-14{clip-path:url(#clip-path-5);}.cls-15{clip-path:url(#clip-path-6);}.cls-16{fill:#0b4f65;}</style><clipPath id="clip-path"><polygon class="cls-1" points="-87.91 -322.77 -87.91 -224.79 -18.91 -273.78 -87.91 -322.77"/></clipPath><clipPath id="clip-path-2"><rect class="cls-2" x="-69.12" y="-437.81" width="15.41" height="154"/></clipPath><clipPath id="clip-path-3"><rect class="cls-2" x="48.15" y="-437.94" width="15.41" height="139"/></clipPath><clipPath id="clip-path-4"><polygon class="cls-3" points="130.67 -420.94 32.69 -420.94 81.68 -351.94 130.67 -420.94"/></clipPath><clipPath id="clip-path-5"><path class="cls-4" d="M.79,5.25H2.61L4.59,8,3.51,9.31ZM5.11,8l2-2.72H8.92L6.19,9.31Zm-2-2.92L4.92,2.49,6.69,5.05,4.92,7.61ZM5.11,2,6.19.66,8.92,4.72H7.1ZM3.51.66,4.59,2l-2,2.72H.79ZM9.2,0V4.23L6.4,0H3.31L.51,4.24V0H0V10H.51V5.73L3.31,10H6.4L9.2,5.74V10h.5V0Z"/></clipPath><clipPath id="clip-path-6"><rect class="cls-5" x="-24.13" y="-6.95" width="188.83" height="830.2"/></clipPath></defs><polygon class="cls-6" points="-87.91 -322.77 -87.91 -224.79 -18.91 -273.78 -87.91 -322.77"/><g class="cls-7"><rect class="cls-8" x="-1025.91" y="-1360.49" width="1440" height="6331"/></g><rect class="cls-2" x="-69.12" y="-437.81" width="15.41" height="154"/><g class="cls-9"><rect class="cls-2" x="-1025.91" y="-1360.49" width="1440" height="6331"/></g><rect class="cls-2" x="48.15" y="-437.94" width="15.41" height="139"/><g class="cls-10"><rect class="cls-2" x="-437.82" y="-1226.15" width="1440" height="6331"/></g><polygon class="cls-11" points="130.67 -420.94 32.69 -420.94 81.68 -351.94 130.67 -420.94"/><g class="cls-12"><rect class="cls-13" x="-437.82" y="-1226.15" width="1440" height="6331"/></g><g class="cls-14"><g class="cls-15"><rect class="cls-16" x="-0.66" y="-0.66" width="11.02" height="11.28"/></g></g></svg>