<svg id="Layer_1" data-name="Layer 1" xmlns="http://www.w3.org/2000/svg" xmlns:xlink="http://www.w3.org/1999/xlink" viewBox="0 0 151.37 207.76"><defs><style>.cls-1,.cls-18,.cls-3{fill:#06d6a0;}.cls-12,.cls-2,.cls-7{fill:#ffd166;}.cls-3,.cls-4,.cls-6,.cls-7{clip-rule:evenodd;}.cls-4,.cls-5{fill:none;}.cls-11,.cls-6,.cls-9{fill:#ff7373;}.cls-8{clip-path:url(#clip-path);}.cls-12,.cls-18,.cls-9{fill-rule:evenodd;}.cls-10{clip-path:url(#clip-path-2);}.cls-13{clip-path:url(#clip-path-3);}.cls-14{clip-path:url(#clip-path-4);}.cls-15{clip-path:url(#clip-path-5);}.cls-16{clip-path:url(#clip-path-6);}.cls-17{clip-path:url(#clip-path-7);}.cls-19{clip-path:url(#clip-path-8);}.cls-20{clip-path:url(#clip-path-9);}.cls-21{clip-path:url(#clip-path-10);}.cls-22{clip-path:url(#clip-path-11);}.cls-23{clip-path:url(#clip-path-12);}.cls-24{fill:#ff8383;}.cls-25{clip-path:url(#clip-path-13);}.cls-26{clip-path:url(#clip-path-14);}.cls-27{fill:#0b4f65;}.cls-28{clip-path:url(#clip-path-16);}.cls-29{clip-path:url(#clip-path-18);}.cls-30{clip-path:url(#clip-path-20);}.cls-31{clip-path:url(#clip-path-22);}.cls-32{clip-path:url(#clip-path-24);}</style><clipPath id="clip-path"><rect class="cls-1" x="-201.19" y="-372.05" width="15.41" height="245"/></clipPath><clipPath id="clip-path-2"><polygon class="cls-6" points="-217.98 -191.03 -217.98 -289.01 -286.98 -240.02 -217.98 -191.03"/></clipPath><clipPath id="clip-path-3"><polygon class="cls-7" points="-88.47 -173.52 9.51 -173.52 -39.48 -242.52 -88.47 -173.52"/></clipPath><clipPath id="clip-path-4"><rect class="cls-2" x="-265.19" y="-347.05" width="15.41" height="140"/></clipPath><clipPath id="clip-path-5"><polygon class="cls-6" points="92.84 -322.77 92.84 -224.79 161.84 -273.78 92.84 -322.77"/></clipPath><clipPath id="clip-path-6"><rect class="cls-2" x="111.64" y="-437.81" width="15.41" height="154"/></clipPath><clipPath id="clip-path-7"><rect class="cls-2" x="228.91" y="-437.94" width="15.41" height="139"/></clipPath><clipPath id="clip-path-8"><polygon class="cls-3" points="311.43 -420.94 213.45 -420.94 262.44 -351.94 311.43 -420.94"/></clipPath><clipPath id="clip-path-9"><polygon class="cls-4" points="11.24 21.91 42.38 21.91 26.81 0 11.24 21.91"/></clipPath><clipPath id="clip-path-10"><rect class="cls-5" x="-281.88" y="-72.73" width="462.3" height="2032.52"/></clipPath><clipPath id="clip-path-11"><rect class="cls-5" x="26.97" y="11" width="44.62" height="4.95"/></clipPath><clipPath id="clip-path-12"><rect class="cls-5" x="93.1" y="86.77" width="44.62" height="4.95"/></clipPath><clipPath id="clip-path-13"><rect class="cls-5" y="179.21" width="123.6" height="4.95"/></clipPath><clipPath id="clip-path-14"><rect class="cls-5" x="50.98" y="129.1" width="4.95" height="78.66"/></clipPath><clipPath id="clip-path-16"><polygon class="cls-4" points="45.59 187.22 45.59 155.76 23.44 171.49 45.59 187.22"/></clipPath><clipPath id="clip-path-18"><rect class="cls-5" x="137.66" y="58.15" width="4.95" height="78.66"/></clipPath><clipPath id="clip-path-20"><polygon class="cls-4" points="151.37 77.91 119.91 77.91 135.64 100.06 151.37 77.91"/></clipPath><clipPath id="clip-path-22"><polygon class="cls-4" points="87.17 196.37 118.62 196.37 102.89 174.22 87.17 196.37"/></clipPath><clipPath id="clip-path-24"><rect class="cls-5" x="30.43" y="137.13" width="4.95" height="44.95"/></clipPath></defs><rect class="cls-1" x="-201.19" y="-372.05" width="15.41" height="245"/><g class="cls-8"><rect class="cls-1" x="-1297.98" y="-1024.73" width="1440" height="6331"/></g><polygon class="cls-9" points="-217.98 -191.03 -217.98 -289.01 -286.98 -240.02 -217.98 -191.03"/><g class="cls-10"><rect class="cls-11" x="-1297.98" y="-1024.73" width="1440" height="6331"/></g><polygon class="cls-12" points="-88.47 -173.52 9.51 -173.52 -39.48 -242.52 -88.47 -173.52"/><g class="cls-13"><rect class="cls-2" x="-1297.98" y="-1024.73" width="1440" height="6331"/></g><rect class="cls-2" x="-265.19" y="-347.05" width="15.41" height="140"/><g class="cls-14"><rect class="cls-2" x="-1297.98" y="-1024.73" width="1440" height="6331"/></g><polygon class="cls-9" points="92.84 -322.77 92.84 -224.79 161.84 -273.78 92.84 -322.77"/><g class="cls-15"><rect class="cls-11" x="-845.16" y="-1360.49" width="1440" height="6331"/></g><rect class="cls-2" x="111.64" y="-437.81" width="15.41" height="154"/><g class="cls-16"><rect class="cls-2" x="-845.16" y="-1360.49" width="1440" height="6331"/></g><rect class="cls-2" x="228.91" y="-437.94" width="15.41" height="139"/><g class="cls-17"><rect class="cls-2" x="-257.06" y="-1226.15" width="1440" height="6331"/></g><polygon class="cls-18" points="311.43 -420.94 213.45 -420.94 262.44 -351.94 311.43 -420.94"/><g class="cls-19"><rect class="cls-1" x="-257.06" y="-1226.15" width="1440" height="6331"/></g><g class="cls-20"><g class="cls-21"><rect class="cls-2" x="9.63" y="-1.61" width="34.35" height="25.12"/></g></g><g class="cls-22"><rect class="cls-1" x="25.36" y="9.4" width="47.84" height="8.16"/></g><g class="cls-23"><rect class="cls-24" x="91.5" y="85.17" width="47.84" height="8.16"/></g><g class="cls-25"><rect class="cls-1" x="-1.61" y="177.61" width="126.81" height="8.16"/></g><g class="cls-26"><g class="cls-21"><rect class="cls-27" x="49.37" y="127.5" width="8.16" height="81.87"/></g></g><g class="cls-28"><g class="cls-21"><rect class="cls-24" x="21.83" y="154.16" width="25.36" height="34.67"/></g></g><g class="cls-29"><g class="cls-21"><rect class="cls-2" x="136.06" y="56.55" width="8.16" height="81.87"/></g></g><g class="cls-30"><g class="cls-21"><rect class="cls-27" x="118.31" y="76.3" width="34.67" height="25.36"/></g></g><g class="cls-31"><g class="cls-21"><rect class="cls-2" x="85.56" y="172.61" width="34.67" height="25.36"/></g></g><g class="cls-32"><g class="cls-21"><rect class="cls-2" x="28.83" y="135.52" width="8.16" height="48.16"/></g></g></svg>